<svg width="152" height="157" viewBox="0 0 152 157" fill="none" xmlns="http://www.w3.org/2000/svg">
<g filter="url(#filter0_d_483_993)">
<mask id="path-1-inside-1_483_993" fill="white">
<path d="M139.028 33.9472C148.131 47.6569 152.429 63.9992 151.249 80.4136C150.069 96.8281 143.477 112.387 132.506 124.654C121.535 136.92 106.804 145.2 90.6227 148.197C74.4411 151.194 57.7224 148.739 43.086 141.215C28.4495 133.692 16.7224 121.525 9.74174 106.622C2.76113 91.7195 0.921496 74.9219 4.51105 58.8613C8.10061 42.8007 16.9165 28.3846 29.5777 17.8716C42.2388 7.35854 58.0297 1.34259 74.4764 0.766235L77.0807 75.0807L139.028 33.9472Z"/>
</mask>
<path d="M139.028 33.9472C148.131 47.6569 152.429 63.9992 151.249 80.4136C150.069 96.8281 143.477 112.387 132.506 124.654C121.535 136.92 106.804 145.2 90.6227 148.197C74.4411 151.194 57.7224 148.739 43.086 141.215C28.4495 133.692 16.7224 121.525 9.74174 106.622C2.76113 91.7195 0.921496 74.9219 4.51105 58.8613C8.10061 42.8007 16.9165 28.3846 29.5777 17.8716C42.2388 7.35854 58.0297 1.34259 74.4764 0.766235L77.0807 75.0807L139.028 33.9472Z" fill="#3E5EFF"/>
<path d="M139.028 33.9472C148.131 47.6569 152.429 63.9992 151.249 80.4136C150.069 96.8281 143.477 112.387 132.506 124.654C121.535 136.92 106.804 145.2 90.6227 148.197C74.4411 151.194 57.7224 148.739 43.086 141.215C28.4495 133.692 16.7224 121.525 9.74174 106.622C2.76113 91.7195 0.921496 74.9219 4.51105 58.8613C8.10061 42.8007 16.9165 28.3846 29.5777 17.8716C42.2388 7.35854 58.0297 1.34259 74.4764 0.766235L77.0807 75.0807L139.028 33.9472Z" stroke="black" stroke-width="2" mask="url(#path-1-inside-1_483_993)"/>
</g>
<defs>
<filter id="filter0_d_483_993" x="0.720459" y="0.766235" width="150.72" height="155.675" filterUnits="userSpaceOnUse" color-interpolation-filters="sRGB">
<feFlood flood-opacity="0" result="BackgroundImageFix"/>
<feColorMatrix in="SourceAlpha" type="matrix" values="0 0 0 0 0 0 0 0 0 0 0 0 0 0 0 0 0 0 127 0" result="hardAlpha"/>
<feOffset dx="-2" dy="7"/>
<feComposite in2="hardAlpha" operator="out"/>
<feColorMatrix type="matrix" values="0 0 0 0 0 0 0 0 0 0 0 0 0 0 0 0 0 0 1 0"/>
<feBlend mode="normal" in2="BackgroundImageFix" result="effect1_dropShadow_483_993"/>
<feBlend mode="normal" in="SourceGraphic" in2="effect1_dropShadow_483_993" result="shape"/>
</filter>
</defs>
</svg>
