<svg width="197" height="140" viewBox="0 0 197 140" fill="none" xmlns="http://www.w3.org/2000/svg">
<g filter="url(#filter0_d_483_996)">
<path d="M7.21378 100.668L6.25872 97.3839C5.37317 94.3386 4.9761 91.1722 5.08229 88.0025L5.13871 86.3186C5.26834 82.4494 6.16784 78.5921 7.74441 75.0562C8.54833 73.2533 9.53947 71.5089 10.6811 69.8984L13.9977 65.2199L17.651 61.1812C18.7328 59.9853 19.9092 58.8785 21.1689 57.8717L24.6078 55.1231C26.8237 53.352 29.2795 51.9042 31.9019 50.8229L37.9652 48.3227C45.3762 46.3388 49.1126 45.2061 55.1779 44.1083L67.9205 41.6359L75.6606 40.1342C77.4389 39.7892 79.1482 39.1535 80.7199 38.2528C82.9527 36.9732 84.855 35.1889 86.2748 33.0426L88.7626 29.2816L93.387 20.0739L96.3361 15.7871C98.5168 12.6173 101.287 9.89662 104.495 7.77324L105.015 7.42914C107.134 6.02706 109.422 4.89976 111.824 4.07429L114.571 3.13076C117.766 2.03284 121.169 1.671 124.524 2.07227C125.772 2.22156 127.005 2.47551 128.211 2.83143L133.465 4.38251C135.892 5.09883 138.189 6.19486 140.273 7.6299L140.639 7.88213C142.902 9.4407 144.848 11.4158 146.372 13.702C148.276 16.5568 149.474 19.823 149.867 23.2315L149.995 24.3383C150.058 24.8836 150.162 25.4233 150.308 25.9526L150.463 26.5176C151.404 29.9366 154.13 32.5731 157.578 33.3988C158.152 33.536 158.736 33.6209 159.325 33.6523L160.784 33.7302C163.721 33.887 166.61 34.5454 169.325 35.6768L171.097 36.4155C173.849 37.5624 176.415 39.113 178.71 41.0164L180.266 42.3072C182.148 43.8684 183.832 45.6538 185.281 47.6239L187.266 50.3223C189.898 53.9016 191.703 58.0208 192.549 62.3824L194.036 70.0451C194.368 71.758 194.55 73.4966 194.58 75.2412L194.597 76.2292C194.685 81.2962 193.487 86.3027 191.117 90.7817L191.007 90.9885C189.206 94.391 186.767 97.4151 183.823 99.8958L175.267 107.105C173.162 108.878 170.823 110.354 168.316 111.49L154.952 117.544L135.297 124.171L117.577 128.229L100.11 130.68L79.1438 131.873L62.086 131.341L47.2464 129.271C45.3384 129.005 43.4605 128.556 41.6386 127.93L31.2454 124.358C29.6996 123.826 28.1998 123.17 26.761 122.394L22.8664 120.295C18.614 118.002 14.9782 114.717 12.268 110.718L11.1864 109.122C9.42897 106.529 8.0885 103.676 7.21378 100.668Z" fill="white"/>
<path d="M7.21378 100.668L6.25872 97.3839C5.37317 94.3386 4.9761 91.1722 5.08229 88.0025L5.13871 86.3186C5.26834 82.4494 6.16784 78.5921 7.74441 75.0562C8.54833 73.2533 9.53947 71.5089 10.6811 69.8984L13.9977 65.2199L17.651 61.1812C18.7328 59.9853 19.9092 58.8785 21.1689 57.8717L24.6078 55.1231C26.8237 53.352 29.2795 51.9042 31.9019 50.8229L37.9652 48.3227C45.3762 46.3388 49.1126 45.2061 55.1779 44.1083L67.9205 41.6359L75.6606 40.1342C77.4389 39.7892 79.1482 39.1535 80.7199 38.2528C82.9527 36.9732 84.855 35.1889 86.2748 33.0426L88.7626 29.2816L93.387 20.0739L96.3361 15.7871C98.5168 12.6173 101.287 9.89662 104.495 7.77324L105.015 7.42914C107.134 6.02706 109.422 4.89976 111.824 4.07429L114.571 3.13076C117.766 2.03284 121.169 1.671 124.524 2.07227C125.772 2.22156 127.005 2.47551 128.211 2.83143L133.465 4.38251C135.892 5.09883 138.189 6.19486 140.273 7.6299L140.639 7.88213C142.902 9.4407 144.848 11.4158 146.372 13.702C148.276 16.5568 149.474 19.823 149.867 23.2315L149.995 24.3383C150.058 24.8836 150.162 25.4233 150.308 25.9526L150.463 26.5176C151.404 29.9366 154.13 32.5731 157.578 33.3988C158.152 33.536 158.736 33.6209 159.325 33.6523L160.784 33.7302C163.721 33.887 166.61 34.5454 169.325 35.6768L171.097 36.4155C173.849 37.5624 176.415 39.113 178.71 41.0164L180.266 42.3072C182.148 43.8684 183.832 45.6538 185.281 47.6239L187.266 50.3223C189.898 53.9016 191.703 58.0208 192.549 62.3824L194.036 70.0451C194.368 71.758 194.55 73.4966 194.58 75.2412L194.597 76.2292C194.685 81.2962 193.487 86.3027 191.117 90.7817L191.007 90.9885C189.206 94.391 186.767 97.4151 183.823 99.8958L175.267 107.105C173.162 108.878 170.823 110.354 168.316 111.49L154.952 117.544L135.297 124.171L117.577 128.229L100.11 130.68L79.1438 131.873L62.086 131.341L47.2464 129.271C45.3384 129.005 43.4605 128.556 41.6386 127.93L31.2454 124.358C29.6996 123.826 28.1998 123.17 26.761 122.394L22.8664 120.295C18.614 118.002 14.9782 114.717 12.268 110.718L11.1864 109.122C9.42897 106.529 8.0885 103.676 7.21378 100.668Z" stroke="black" stroke-width="3"/>
</g>
<defs>
<filter id="filter0_d_483_996" x="0.56543" y="0.413513" width="195.536" height="138.961" filterUnits="userSpaceOnUse" color-interpolation-filters="sRGB">
<feFlood flood-opacity="0" result="BackgroundImageFix"/>
<feColorMatrix in="SourceAlpha" type="matrix" values="0 0 0 0 0 0 0 0 0 0 0 0 0 0 0 0 0 0 127 0" result="hardAlpha"/>
<feOffset dx="-3" dy="6"/>
<feComposite in2="hardAlpha" operator="out"/>
<feColorMatrix type="matrix" values="0 0 0 0 0 0 0 0 0 0 0 0 0 0 0 0 0 0 1 0"/>
<feBlend mode="normal" in2="BackgroundImageFix" result="effect1_dropShadow_483_996"/>
<feBlend mode="normal" in="SourceGraphic" in2="effect1_dropShadow_483_996" result="shape"/>
</filter>
</defs>
</svg>
