<svg width="149" height="140" viewBox="0 0 149 140" fill="none" xmlns="http://www.w3.org/2000/svg">
<g filter="url(#filter0_d_483_994)">
<mask id="path-1-inside-1_483_994" fill="white">
<path d="M146.069 61.0798C145.726 73.4236 142.259 85.479 135.992 96.1194C129.725 106.76 120.864 115.638 110.235 121.924C99.6057 128.21 87.5567 131.699 75.2135 132.065C62.8703 132.431 50.6358 129.661 39.6533 124.016C28.6708 118.37 19.2987 110.033 12.4129 99.782C5.52713 89.5314 1.35234 77.7025 0.27869 65.4006C-0.794964 53.0988 1.26756 40.7255 6.27353 29.437C11.2795 18.1486 19.0655 8.31347 28.904 0.850688L53.1789 32.8533C48.7505 36.2124 45.2459 40.6394 42.9926 45.7205C40.7393 50.8016 39.811 56.371 40.2942 61.9082C40.7775 67.4455 42.6566 72.7699 45.7561 77.3838C48.8555 81.9977 53.074 85.7507 58.0174 88.2918C62.9608 90.833 68.4677 92.0795 74.0236 91.9148C79.5794 91.7502 85.0029 90.1797 89.7871 87.3503C94.5713 84.5208 98.5602 80.5246 101.381 75.7352C104.202 70.9458 105.762 65.5195 105.917 59.9633L146.069 61.0798Z"/>
</mask>
<path d="M146.069 61.0798C145.726 73.4236 142.259 85.479 135.992 96.1194C129.725 106.76 120.864 115.638 110.235 121.924C99.6057 128.21 87.5567 131.699 75.2135 132.065C62.8703 132.431 50.6358 129.661 39.6533 124.016C28.6708 118.37 19.2987 110.033 12.4129 99.782C5.52713 89.5314 1.35234 77.7025 0.27869 65.4006C-0.794964 53.0988 1.26756 40.7255 6.27353 29.437C11.2795 18.1486 19.0655 8.31347 28.904 0.850688L53.1789 32.8533C48.7505 36.2124 45.2459 40.6394 42.9926 45.7205C40.7393 50.8016 39.811 56.371 40.2942 61.9082C40.7775 67.4455 42.6566 72.7699 45.7561 77.3838C48.8555 81.9977 53.074 85.7507 58.0174 88.2918C62.9608 90.833 68.4677 92.0795 74.0236 91.9148C79.5794 91.7502 85.0029 90.1797 89.7871 87.3503C94.5713 84.5208 98.5602 80.5246 101.381 75.7352C104.202 70.9458 105.762 65.5195 105.917 59.9633L146.069 61.0798Z" fill="#64DBFF"/>
<path d="M146.069 61.0798C145.726 73.4236 142.259 85.479 135.992 96.1194C129.725 106.76 120.864 115.638 110.235 121.924C99.6057 128.21 87.5567 131.699 75.2135 132.065C62.8703 132.431 50.6358 129.661 39.6533 124.016C28.6708 118.37 19.2987 110.033 12.4129 99.782C5.52713 89.5314 1.35234 77.7025 0.27869 65.4006C-0.794964 53.0988 1.26756 40.7255 6.27353 29.437C11.2795 18.1486 19.0655 8.31347 28.904 0.850688L53.1789 32.8533C48.7505 36.2124 45.2459 40.6394 42.9926 45.7205C40.7393 50.8016 39.811 56.371 40.2942 61.9082C40.7775 67.4455 42.6566 72.7699 45.7561 77.3838C48.8555 81.9977 53.074 85.7507 58.0174 88.2918C62.9608 90.833 68.4677 92.0795 74.0236 91.9148C79.5794 91.7502 85.0029 90.1797 89.7871 87.3503C94.5713 84.5208 98.5602 80.5246 101.381 75.7352C104.202 70.9458 105.762 65.5195 105.917 59.9633L146.069 61.0798Z" stroke="black" stroke-width="2" mask="url(#path-1-inside-1_483_994)"/>
</g>
<defs>
<filter id="filter0_d_483_994" x="0.00195312" y="0.850708" width="148.067" height="138.246" filterUnits="userSpaceOnUse" color-interpolation-filters="sRGB">
<feFlood flood-opacity="0" result="BackgroundImageFix"/>
<feColorMatrix in="SourceAlpha" type="matrix" values="0 0 0 0 0 0 0 0 0 0 0 0 0 0 0 0 0 0 127 0" result="hardAlpha"/>
<feOffset dx="2" dy="7"/>
<feComposite in2="hardAlpha" operator="out"/>
<feColorMatrix type="matrix" values="0 0 0 0 0 0 0 0 0 0 0 0 0 0 0 0 0 0 1 0"/>
<feBlend mode="normal" in2="BackgroundImageFix" result="effect1_dropShadow_483_994"/>
<feBlend mode="normal" in="SourceGraphic" in2="effect1_dropShadow_483_994" result="shape"/>
</filter>
</defs>
</svg>
