<svg width="141" height="138" viewBox="0 0 141 138" fill="none" xmlns="http://www.w3.org/2000/svg">
<g filter="url(#filter0_d_483_991)">
<path d="M70.6963 2.36567C71.6772 -0.211336 75.3228 -0.211341 76.3037 2.36566L88.328 33.9545C88.895 35.4439 90.5275 36.2301 92.0455 35.7447L124.24 25.4504C126.866 24.6106 129.139 27.4608 127.736 29.8345L110.536 58.9308C109.725 60.3026 110.128 62.0692 111.454 62.9534L139.575 81.7053C141.869 83.2351 141.058 86.7893 138.327 87.1722L104.855 91.8659C103.277 92.0872 102.147 93.5039 102.282 95.0918L105.155 128.769C105.389 131.517 102.104 133.099 100.102 131.202L75.563 107.959C74.406 106.863 72.594 106.863 71.437 107.959L46.8976 131.202C44.8957 133.099 41.6111 131.517 41.8454 128.769L44.7178 95.0918C44.8532 93.5039 43.7234 92.0872 42.1452 91.8659L8.67276 87.1722C5.94209 86.7893 5.13086 83.2351 7.42497 81.7053L35.5461 62.9534C36.872 62.0692 37.2752 60.3026 36.4642 58.9308L19.2642 29.8345C17.861 27.4608 20.134 24.6106 22.7604 25.4504L54.9545 35.7447C56.4725 36.2301 58.105 35.4439 58.672 33.9545L70.6963 2.36567Z" fill="#FF381E"/>
<path d="M75.8365 2.54354L87.8608 34.1323C88.5222 35.87 90.4268 36.7872 92.1978 36.2209L124.392 25.9266C126.581 25.2268 128.475 27.602 127.305 29.58L110.105 58.6763C109.159 60.2768 109.63 62.3378 111.176 63.3693L139.298 82.1213C141.209 83.3962 140.533 86.358 138.258 86.6771L104.785 91.3707C102.944 91.6289 101.626 93.2817 101.784 95.1343L104.656 128.812C104.852 131.101 102.115 132.42 100.446 130.839L75.9069 107.596C74.557 106.317 72.443 106.317 71.0931 107.596L46.5538 130.839C44.8855 132.42 42.1483 131.101 42.3436 128.812L45.216 95.1343C45.374 93.2817 44.0559 91.6289 42.2146 91.3708L8.74219 86.6771C6.46663 86.358 5.79061 83.3962 7.70237 82.1213L35.8235 63.3694C37.3704 62.3378 37.8408 60.2769 36.8947 58.6763L19.6946 29.58C18.5253 27.602 20.4194 25.2268 22.6081 25.9266L54.8022 36.2209C56.5732 36.7872 58.4778 35.87 59.1392 34.1323L71.1635 2.54354C71.981 0.396037 75.019 0.396036 75.8365 2.54354Z" stroke="black"/>
</g>
<defs>
<filter id="filter0_d_483_991" x="0.0866699" y="0.432922" width="140.827" height="136.6" filterUnits="userSpaceOnUse" color-interpolation-filters="sRGB">
<feFlood flood-opacity="0" result="BackgroundImageFix"/>
<feColorMatrix in="SourceAlpha" type="matrix" values="0 0 0 0 0 0 0 0 0 0 0 0 0 0 0 0 0 0 127 0" result="hardAlpha"/>
<feOffset dx="-6" dy="5"/>
<feComposite in2="hardAlpha" operator="out"/>
<feColorMatrix type="matrix" values="0 0 0 0 0 0 0 0 0 0 0 0 0 0 0 0 0 0 1 0"/>
<feBlend mode="normal" in2="BackgroundImageFix" result="effect1_dropShadow_483_991"/>
<feBlend mode="normal" in="SourceGraphic" in2="effect1_dropShadow_483_991" result="shape"/>
</filter>
</defs>
</svg>
